<?xml version="1.0" encoding="UTF-8" standalone="no"?><svg xmlns="http://www.w3.org/2000/svg" xmlns:xlink="http://www.w3.org/1999/xlink" fill="#ffffff" height="77.7" preserveAspectRatio="xMidYMid meet" version="1" viewBox="4.6 25.1 118.9 77.7" width="118.9" zoomAndPan="magnify"><g id="change1_1"><path d="M116.688,25.132H11.311a6.761,6.761,0,0,0-6.754,6.754V96.114a6.761,6.761,0,0,0,6.754,6.754H116.688a6.761,6.761,0,0,0,6.755-6.754V31.886A6.761,6.761,0,0,0,116.688,25.132ZM82.684,64l37.1-33.071a3.189,3.189,0,0,1,.16.957V96.114a3.189,3.189,0,0,1-.16.957Zm34-35.368a3.219,3.219,0,0,1,.37.037l-50.9,45.37a3.248,3.248,0,0,1-4.326,0L10.942,28.669a3.224,3.224,0,0,1,.369-.037ZM8.217,97.071a3.189,3.189,0,0,1-.16-.957V31.886a3.189,3.189,0,0,1,.16-.957L45.316,64Zm3.094,2.3a3.224,3.224,0,0,1-.369-.037l37-32.987L59.509,76.652a6.747,6.747,0,0,0,8.982,0L80.055,66.344l37,32.987a3.219,3.219,0,0,1-.37.037Z" fill="inherit"/></g></svg>