<?xml version="1.0" encoding="UTF-8"?><svg xmlns="http://www.w3.org/2000/svg" xmlns:xlink="http://www.w3.org/1999/xlink" height="64.0" preserveAspectRatio="xMidYMid meet" version="1.0" viewBox="0.0 0.0 56.0 64.0" width="56.0" zoomAndPan="magnify"><g data-name="16-HTML"><g id="change1_1"><path d="M43,1,55,13H43Z" fill="#ffaf36"/></g><g id="change2_1"><path d="M55,13V63H9V1H43V13Z" fill="#ff6d00"/></g><g id="change3_1"><path d="M11,9V57a4,4,0,0,0,4,4H49a4,4,0,0,0,4-4V54.877C11,52.289,11,9,11,9Z" fill="#f54e00"/></g><g id="change3_2"><path d="M44 13H55V15H44z" fill="#f54e00"/></g><g id="change4_1"><path d="M1 4H37V20H1z" fill="#f2f2f2"/></g><g id="change5_1"><path d="M9 20H35V23H9z" fill="#d63900"/></g><g id="change6_1"><path d="M21 50L13 41 21 32 25 32 17 41 25 50 21 50z" fill="#fff"/></g><g id="change6_2"><path d="M43 50L51 41 43 32 39 32 47 41 39 50 43 50z" fill="#fff"/></g><g id="change6_3"><path d="M28 50L33 32 36 32 31 50 28 50z" fill="#fff"/></g><g id="change5_2"><path d="M13 41L19.222 34 19 34 11 43 19 52 23 52 21.222 50 21 50 13 41z" fill="#d63900"/></g><g id="change5_3"><path d="M47 41L40.778 34 37 34 45 43 37 52 41 52 42.778 50 39 50 47 41z" fill="#d63900"/></g><g id="change5_4"><path d="M32.444 34L31 34 26 52 29 52 29.556 50 28 50 32.444 34z" fill="#d63900"/></g><g id="change7_1"><path d="M29,16V8H28v9a1,1,0,0,0,1,1h4V17H30A1,1,0,0,1,29,16Z" fill="#cdd1d6"/></g><g id="change7_2"><path d="M8 8H9V11H8z" fill="#cdd1d6"/></g><g id="change7_3"><path d="M4 8L3 8 3 18 5 18 5 17 4 17 4 8z" fill="#cdd1d6"/></g><g id="change7_4"><path d="M9 13L6 13 6 14 8 14 8 18 10 18 10 17 9 17 9 13z" fill="#cdd1d6"/></g><g id="change7_5"><path d="M16 9H17V10H16z" fill="#cdd1d6"/></g><g id="change7_6"><path d="M14 9L12 9 12 8 11 8 11 10 13 10 13 18 15 18 15 17 14 17 14 9z" fill="#cdd1d6"/></g><g id="change7_7"><path d="M19,8.014a.9.9,0,0,0-.2.007A1,1,0,0,0,18,9v9h2V17H19Z" fill="#cdd1d6"/></g><g id="change7_8"><path d="M24.908,8.01a1,1,0,0,0-.827.6L22.714,11.8l.286.666Z" fill="#cdd1d6"/></g><g id="change7_9"><path d="M22.081,15.394,21,12.872V16.2l.081.189a1,1,0,0,0,1.838,0l.175-.408c-.032,0-.062.014-.094.014A1,1,0,0,1,22.081,15.394Z" fill="#cdd1d6"/></g><g id="change7_10"><path d="M25 12.872L24 15.205 24 18 26 18 26 17 25 17 25 12.872z" fill="#cdd1d6"/></g><g id="change8_1"><path d="M55.707,12.293l-12-12A1,1,0,0,0,43,0H9A1,1,0,0,0,8,1V3H1A1,1,0,0,0,0,4V20a1,1,0,0,0,1,1H37a1,1,0,0,0,1-1V4a1,1,0,0,0-1-1H10V2H42V13a1,1,0,0,0,1,1H54v2h2V13A1,1,0,0,0,55.707,12.293ZM36,19H2V5H36ZM44,3.414,52.586,12H44Z" fill="inherit"/></g><g id="change8_2"><path d="M8 23H10V25H8z" fill="inherit"/></g><g id="change8_3"><path d="M8 27H10V56H8z" fill="inherit"/></g><g id="change8_4"><path d="M54,62H10V58H8v5a1,1,0,0,0,1,1H55a1,1,0,0,0,1-1V22H54Z" fill="inherit"/></g><g id="change8_5"><path d="M54 18H56V20H54z" fill="inherit"/></g><g id="change8_6"><path d="M30,17h4V15H31V7H29v9A1,1,0,0,0,30,17Z" fill="inherit"/></g><g id="change8_7"><path d="M6 13L9 13 9 17 11 17 11 7 9 7 9 11 6 11 6 7 4 7 4 17 6 17 6 13z" fill="inherit"/></g><g id="change8_8"><path d="M14 17L16 17 16 9 18 9 18 7 12 7 12 9 14 9 14 17z" fill="inherit"/></g><g id="change8_9"><path d="M21,12.872l1.081,2.522a1,1,0,0,0,1.838,0L25,12.872V17h2V8a1,1,0,0,0-1.919-.394L23,12.461,20.919,7.606A1,1,0,0,0,19,8v9h2Z" fill="inherit"/></g><g id="change8_10"><path d="M25.912,31.59A1,1,0,0,0,25,31H21a1,1,0,0,0-.747.335l-8,9a1,1,0,0,0,0,1.328l8,9A1,1,0,0,0,21,51h4a1,1,0,0,0,.747-1.664L18.338,41l7.409-8.335A1,1,0,0,0,25.912,31.59Zm-9.659,8.746a1,1,0,0,0,0,1.328L22.773,49H21.449l-7.111-8,7.111-8h1.324Z" fill="inherit"/></g><g id="change8_11"><path d="M38.088,50.409A1,1,0,0,0,39,51h4a1,1,0,0,0,.747-.336l8-9a1,1,0,0,0,0-1.328l-8-9A1,1,0,0,0,43,31H39a1,1,0,0,0-.747,1.665L45.662,41l-7.409,8.336A1,1,0,0,0,38.088,50.409Zm9.659-8.745a1,1,0,0,0,0-1.328L41.227,33h1.324l7.111,8-7.111,8H41.227Z" fill="inherit"/></g><g id="change8_12"><path d="M31,51a1,1,0,0,0,.964-.732l5-18A1,1,0,0,0,36,31H33a1,1,0,0,0-.964.732l-5,18A1,1,0,0,0,28,51Zm2.76-18h.925L30.24,49h-.925Z" fill="inherit"/></g></g></svg>