<?xml version="1.0" encoding="UTF-8" standalone="no"?><svg xmlns="http://www.w3.org/2000/svg" xmlns:xlink="http://www.w3.org/1999/xlink" fill="#ffffff" height="40" preserveAspectRatio="xMidYMid meet" version="1" viewBox="4.0 4.0 40.0 40.0" width="40" zoomAndPan="magnify"><g><path d="M0,0H48V48H0Z" fill="none"/><g id="change1_1"><path d="M16,36H10a6.006,6.006,0,0,1-6-6V22a6.006,6.006,0,0,1,6-6H24a2,2,0,0,1,0,4H10a2,2,0,0,0-2,2v8a2,2,0,0,0,2,2h6a2,2,0,0,1,0,4Z"/></g><g id="change1_2"><path d="M38,32H24a2,2,0,0,1,0-4H38a2,2,0,0,0,2-2V18a2,2,0,0,0-2-2H32a2,2,0,0,1,0-4h6a6.006,6.006,0,0,1,6,6v8A6.006,6.006,0,0,1,38,32Z"/></g><g id="change1_3"><path d="M28,44H20a6.006,6.006,0,0,1-6-6V28a6.006,6.006,0,0,1,6-6h8a2,2,0,0,0,2-2V10a2,2,0,0,0-2-2H20a2,2,0,0,0-2,2v8a2,2,0,0,1-4,0V10a6.006,6.006,0,0,1,6-6h8a6.006,6.006,0,0,1,6,6V20a6.006,6.006,0,0,1-6,6H20a2,2,0,0,0-2,2V38a2,2,0,0,0,2,2h8a2,2,0,0,0,2-2V30a2,2,0,0,1,4,0v8A6.006,6.006,0,0,1,28,44Z"/></g><g id="change1_4"><path d="M22,14.02A2.005,2.005,0,1,1,24,12v.02A2,2,0,0,1,22,14.02Z"/></g><g id="change1_5"><path d="M26,38.02A2.005,2.005,0,1,1,28,36v.02A2,2,0,0,1,26,38.02Z"/></g></g></svg>