<?xml version="1.0" encoding="UTF-8"?><svg xmlns="http://www.w3.org/2000/svg" xmlns:xlink="http://www.w3.org/1999/xlink" height="519.1" preserveAspectRatio="xMidYMid meet" version="1.0" viewBox="-0.0 -0.3 516.1 519.1" width="516.1" zoomAndPan="magnify"><g><g><g><g id="change1_10"><path d="M314.2 40L314.2 41.8 256.4 75.7 198.6 41.8 198.6 40 256.4 6z" fill="#67ADA9"/></g><g id="change2_13"><path d="M256.4,81.7c-1,0-2.1-0.3-3-0.8L195.6,47c-1.8-1.1-3-3-3-5.2V40c0-2.1,1.1-4.1,3-5.2l57.8-34c1.9-1.1,4.2-1.1,6.1,0 l57.8,34c1.8,1.1,3,3,3,5.2v1.8c0,2.1-1.1,4.1-3,5.2l-57.8,33.9C258.5,81.4,257.4,81.7,256.4,81.7z M208.9,40.9l47.5,27.9 l47.5-27.9L256.4,13L208.9,40.9z" fill="inherit"/></g></g><g><g id="change1_3"><path d="M314.2 41.8L314.2 105.9 256.4 137.9 256.4 75.7z" fill="#67ADA9"/></g><g id="change2_21"><path d="M256.4,143.9c-1.1,0-2.1-0.3-3-0.8c-1.8-1.1-3-3-3-5.2V75.7c0-2.1,1.1-4.1,3-5.2l57.8-33.9c1.9-1.1,4.1-1.1,6,0 s3,3.1,3,5.2v64.1c0,2.2-1.2,4.2-3.1,5.2l-57.8,32C258.4,143.6,257.4,143.9,256.4,143.9z M262.4,79.1v48.6l45.8-25.4v-50 L262.4,79.1z" fill="inherit"/></g></g><g><g id="change1_2"><path d="M256.4 75.7L256.4 137.9 198.6 105.9 198.6 41.8z" fill="#67ADA9"/></g><g id="change2_2"><path d="M256.4,143.9c-1,0-2-0.3-2.9-0.8l-57.8-32c-1.9-1.1-3.1-3.1-3.1-5.2V41.8c0-2.2,1.2-4.1,3-5.2c1.9-1.1,4.2-1.1,6,0 l57.8,33.9c1.8,1.1,3,3,3,5.2v62.2c0,2.1-1.1,4.1-3,5.2C258.5,143.6,257.5,143.9,256.4,143.9z M204.6,102.4l45.8,25.4V79.1 l-45.8-26.9V102.4z" fill="inherit"/></g></g></g><g><g><g id="change1_11"><path d="M510 154.7L510 156.5 452.2 190.5 394.4 156.5 394.4 154.7 452.2 120.8z" fill="#67ADA9"/></g><g id="change2_14"><path d="M452.2,196.5c-1.1,0-2.1-0.3-3-0.8l-57.8-34c-1.8-1.1-3-3-3-5.2v-1.8c0-2.1,1.1-4.1,3-5.2l57.8-33.9 c1.9-1.1,4.2-1.1,6.1,0l57.8,33.9c1.8,1.1,3,3,3,5.2v1.8c0,2.1-1.1,4.1-3,5.2l-57.8,34C454.3,196.2,453.3,196.5,452.2,196.5z M404.7,155.6l47.5,27.9l47.5-27.9l-47.5-27.9L404.7,155.6z" fill="inherit"/></g></g><g><g id="change1_12"><path d="M510 156.5L510 220.7 452.2 252.7 452.2 190.5z" fill="#67ADA9"/></g><g id="change2_29"><path d="M452.2,258.7c-1.1,0-2.1-0.3-3-0.8c-1.8-1.1-3-3-3-5.2v-62.2c0-2.1,1.1-4.1,3-5.2l57.8-34c1.9-1.1,4.2-1.1,6,0 c1.9,1.1,3,3.1,3,5.2v64.2c0,2.2-1.2,4.2-3.1,5.2l-57.8,32C454.2,258.5,453.2,258.7,452.2,258.7z M458.2,193.9v48.6l45.8-25.4 V167L458.2,193.9z" fill="inherit"/></g></g><g><g id="change1_1"><path d="M452.2 190.5L452.2 252.7 394.4 220.7 394.4 156.5z" fill="#67ADA9"/></g><g id="change2_19"><path d="M452.2,258.7c-1,0-2-0.3-2.9-0.8l-57.8-32c-1.9-1.1-3.1-3.1-3.1-5.2v-64.2c0-2.2,1.2-4.1,3-5.2c1.9-1.1,4.2-1.1,6,0 l57.8,34c1.8,1.1,3,3,3,5.2v62.2c0,2.1-1.1,4.1-3,5.2C454.3,258.4,453.3,258.7,452.2,258.7z M400.4,217.2l45.8,25.4V194l-45.8-27 V217.2z" fill="inherit"/></g></g></g><g><g><g id="change1_4"><path d="M510 322.9L510 324.6 452.2 358.6 394.4 324.6 394.4 322.9 452.2 288.9z" fill="#67ADA9"/></g><g id="change2_22"><path d="M452.2,364.6c-1.1,0-2.1-0.3-3-0.8l-57.8-34c-1.8-1.1-3-3-3-5.2v-1.7c0-2.1,1.1-4.1,3-5.2l57.8-34c1.9-1.1,4.2-1.1,6.1,0 l57.8,34c1.8,1.1,3,3,3,5.2v1.7c0,2.1-1.1,4.1-3,5.2l-57.8,34C454.3,364.3,453.3,364.6,452.2,364.6z M404.8,323.8l47.4,27.9 l47.4-27.9l-47.4-27.9L404.8,323.8z" fill="inherit"/></g></g><g><g id="change1_13"><path d="M510 324.6L510 388.8 452.2 420.8 452.2 358.6z" fill="#67ADA9"/></g><g id="change2_30"><path d="M452.2,426.8c-1.1,0-2.1-0.3-3-0.8c-1.8-1.1-3-3-3-5.2v-62.2c0-2.1,1.1-4.1,3-5.2l57.8-34c1.9-1.1,4.2-1.1,6,0 c1.9,1.1,3,3.1,3,5.2v64.2c0,2.2-1.2,4.2-3.1,5.2l-57.8,32C454.2,426.5,453.2,426.8,452.2,426.8z M458.2,362v48.6l45.8-25.4V335 L458.2,362z" fill="inherit"/></g></g><g><g id="change1_14"><path d="M452.2 358.6L452.2 420.8 394.4 388.8 394.4 324.6z" fill="#67ADA9"/></g><g id="change2_31"><path d="M452.2,426.8c-1,0-2-0.3-2.9-0.8l-57.8-32c-1.9-1.1-3.1-3.1-3.1-5.2v-64.2c0-2.2,1.2-4.1,3-5.2c1.9-1.1,4.2-1.1,6,0 l57.8,34c1.8,1.1,3,3,3,5.2v62.2c0,2.1-1.1,4.1-3,5.2C454.3,426.5,453.3,426.8,452.2,426.8z M400.4,385.3l45.8,25.4V362 l-45.8-26.9V385.3z" fill="inherit"/></g></g></g><g><g><g id="change1_5"><path d="M121.6 154.7L121.6 156.5 63.8 190.5 6 156.5 6 154.7 63.8 120.8z" fill="#67ADA9"/></g><g id="change2_23"><path d="M63.8,196.5c-1.1,0-2.1-0.3-3-0.8L3,161.7c-1.8-1.1-3-3-3-5.2v-1.8c0-2.1,1.1-4.1,3-5.2l57.8-33.9c1.9-1.1,4.2-1.1,6.1,0 l57.8,33.9c1.8,1.1,3,3,3,5.2v1.8c0,2.1-1.1,4.1-3,5.2l-57.8,34C65.9,196.2,64.9,196.5,63.8,196.5z M16.3,155.6l47.5,27.9 l47.5-27.9l-47.5-27.9L16.3,155.6z" fill="inherit"/></g></g><g><g id="change1_8"><path d="M121.6 156.5L121.6 220.7 63.8 252.7 63.8 190.5z" fill="#67ADA9"/></g><g id="change2_25"><path d="M63.8,258.7c-1.1,0-2.1-0.3-3-0.8c-1.8-1.1-3-3-3-5.2v-62.2c0-2.1,1.1-4.1,3-5.2l57.8-34c1.9-1.1,4.2-1.1,6,0 c1.9,1.1,3,3.1,3,5.2v64.2c0,2.2-1.2,4.2-3.1,5.2l-57.8,32C65.8,258.5,64.8,258.7,63.8,258.7z M69.8,193.9v48.6l45.8-25.4V167 L69.8,193.9z" fill="inherit"/></g></g><g><g id="change1_17"><path d="M63.8 190.5L63.8 252.7 6 220.7 6 156.5z" fill="#67ADA9"/></g><g id="change2_34"><path d="M63.8,258.7c-1,0-2-0.3-2.9-0.8l-57.8-32c-1.9-1.1-3.1-3.1-3.1-5.2v-64.2c0-2.2,1.2-4.1,3-5.2c1.9-1.1,4.2-1.1,6,0 l57.8,34c1.8,1.1,3,3,3,5.2v62.2c0,2.1-1.1,4.1-3,5.2C65.9,258.4,64.9,258.7,63.8,258.7z M12,217.2l45.8,25.4V194L12,167V217.2z" fill="inherit"/></g></g></g><g><g><g id="change1_18"><path d="M121.6 316.4L121.6 318.2 63.8 352.1 6 318.2 6 316.4 63.8 282.4z" fill="#67ADA9"/></g><g id="change2_35"><path d="M63.8,358.1c-1,0-2.1-0.3-3-0.8L3,323.4c-1.8-1.1-3-3-3-5.2v-1.8c0-2.1,1.1-4.1,3-5.2l57.8-34c1.9-1.1,4.2-1.1,6.1,0 l57.8,34c1.8,1.1,3,3,3,5.2v1.8c0,2.1-1.1,4.1-3,5.2l-57.8,33.9C65.9,357.8,64.8,358.1,63.8,358.1z M16.3,317.3l47.5,27.8 l47.5-27.8l-47.5-27.9L16.3,317.3z" fill="inherit"/></g></g><g><g id="change1_6"><path d="M121.6 318.2L121.6 382.3 63.8 414.3 63.8 352.1z" fill="#67ADA9"/></g><g id="change2_5"><path d="M63.8,420.3c-1.1,0-2.1-0.3-3-0.8c-1.8-1.1-3-3-3-5.2v-62.2c0-2.1,1.1-4.1,3-5.2l57.8-33.9c1.9-1.1,4.2-1.1,6,0 s3,3.1,3,5.2v64.1c0,2.2-1.2,4.2-3.1,5.2l-57.8,32C65.8,420,64.8,420.3,63.8,420.3z M69.8,355.5v48.6l45.8-25.4v-50.1L69.8,355.5 z" fill="inherit"/></g></g><g><g id="change1_15"><path d="M63.8 352.1L63.8 414.3 6 382.3 6 318.2z" fill="#67ADA9"/></g><g id="change2_17"><path d="M63.8,420.3c-1,0-2-0.3-2.9-0.8l-57.8-32c-1.9-1.1-3.1-3.1-3.1-5.2v-64.1c0-2.2,1.2-4.1,3-5.2c1.9-1.1,4.2-1.1,6,0 l57.8,33.9c1.8,1.1,3,3,3,5.2v62.2c0,2.1-1.1,4.1-3,5.2C65.9,420,64.9,420.3,63.8,420.3z M12,378.8l45.8,25.4v-48.6L12,328.7 V378.8z" fill="inherit"/></g></g></g><g><g fill="#4A6792" id="change3_1"><path d="M366.3 198.1L256.4 262.7 146.5 198.1 256.4 133.5z" fill="inherit"/><path d="M366.3 198.1L256.4 262.7 256.4 384.4 366.3 323.6z" fill="inherit"/><path d="M146.5 198.1L256.4 262.7 256.4 384.4 146.5 323.6z" fill="inherit"/></g><g><g id="change4_1"><path d="M256.4 193L198.6 227 198.6 292.9 256.4 324.9 314.2 292.9 314.2 227z" fill="#F9B130"/></g><g id="change2_36"><path d="M256.4,330.9c-1,0-2-0.3-2.9-0.8l-57.8-32c-1.9-1.1-3.1-3.1-3.1-5.2V227c0-2.1,1.1-4.1,3-5.2l57.8-34 c1.9-1.1,4.2-1.1,6.1,0l57.8,34c1.8,1.1,3,3,3,5.2v65.9c0,2.2-1.2,4.2-3.1,5.2l-57.8,32C258.4,330.7,257.4,330.9,256.4,330.9z M204.6,289.4l51.8,28.7l51.8-28.7v-58.9L256.4,200l-51.8,30.5L204.6,289.4L204.6,289.4z" fill="inherit"/></g></g><g><g id="change2_18"><path d="M256.4,390.4c-1,0-2-0.3-2.9-0.8l-109.9-60.8c-1.9-1.1-3.1-3.1-3.1-5.3V198.1c0-2.1,1.1-4.1,3-5.2l109.9-64.6 c1.9-1.1,4.2-1.1,6.1,0l109.9,64.6c1.8,1.1,3,3,3,5.2v125.5c0,2.2-1.2,4.2-3.1,5.3l-109.9,60.8 C258.4,390.2,257.4,390.4,256.4,390.4z M152.5,320.1l103.9,57.5l103.9-57.5V201.5l-103.9-61.1l-103.9,61.1V320.1z" fill="inherit"/></g><g id="change2_8"><path d="M288.3 213.3H372.1V225.3H288.3z" fill="inherit" transform="rotate(-30.483 330.176 219.307)"/></g><g id="change2_24"><path d="M174.1 178.9H186.1V256.8H174.1z" fill="inherit" transform="rotate(-59.517 180.077 217.796)"/></g><g id="change2_16"><path d="M250.4 307.5H262.4V384.4H250.4z" fill="inherit"/></g></g><g><g><g id="change2_3"><path d="M264.7,263h-29.5c-3.3,0-6-2.7-6-6v-27c0-3.3,2.7-6,6-6h29.5c10.8,0,19.5,8.8,19.5,19.5 C284.2,254.3,275.5,263,264.7,263z M241.2,251h23.5c4.1,0,7.5-3.4,7.5-7.5s-3.4-7.5-7.5-7.5h-23.5L241.2,251L241.2,251z" fill="inherit"/></g><g id="change2_11"><path d="M264.7,290.1h-29.5c-3.3,0-6-2.7-6-6v-27c0-3.3,2.7-6,6-6h29.5c10.8,0,19.5,8.8,19.5,19.5 C284.2,281.3,275.5,290.1,264.7,290.1z M241.2,278.1h23.5c4.1,0,7.5-3.4,7.5-7.5s-3.4-7.5-7.5-7.5h-23.5L241.2,278.1 L241.2,278.1z" fill="inherit"/></g><g id="change2_12"><path d="M238.3 218.7H250.3V230H238.3z" fill="inherit"/></g><g id="change2_28"><path d="M256.4 218.7H268.4V230H256.4z" fill="inherit"/></g><g id="change2_20"><path d="M238.3 284.1H250.3V295.40000000000003H238.3z" fill="inherit"/></g><g id="change2_26"><path d="M256.4 284.1H268.4V295.40000000000003H256.4z" fill="inherit"/></g></g></g></g><g><g><g id="change1_16"><path d="M314.2 414.9L314.2 416.7 256.4 450.7 198.6 416.7 198.6 414.9 256.4 381z" fill="#67ADA9"/></g><g id="change2_32"><path d="M256.4,456.7c-1.1,0-2.1-0.3-3-0.8l-57.8-34c-1.8-1.1-3-3-3-5.2v-1.8c0-2.1,1.1-4.1,3-5.2l57.8-34c1.9-1.1,4.2-1.1,6.1,0 l57.8,34c1.8,1.1,3,3,3,5.2v1.8c0,2.1-1.1,4.1-3,5.2l-57.8,34C258.5,456.4,257.5,456.7,256.4,456.7z M208.9,415.8l47.5,27.9 l47.5-27.9l-47.5-27.9L208.9,415.8z" fill="inherit"/></g></g><g><g id="change1_7"><path d="M314.2 416.7L314.2 480.9 256.4 512.8 256.4 450.7z" fill="#67ADA9"/></g><g id="change2_6"><path d="M256.4,518.8c-1.1,0-2.1-0.3-3-0.8c-1.8-1.1-3-3-3-5.2v-62.2c0-2.1,1.1-4.1,3-5.2l57.8-34c1.9-1.1,4.2-1.1,6,0 c1.9,1.1,3,3.1,3,5.2v64.2c0,2.2-1.2,4.2-3.1,5.3l-57.8,32C258.4,518.6,257.4,518.8,256.4,518.8z M262.4,454.1v48.6l45.8-25.3 v-50.1L262.4,454.1z" fill="inherit"/></g></g><g><g id="change1_9"><path d="M256.4 450.7L256.4 512.8 198.6 480.9 198.6 416.7z" fill="#67ADA9"/></g><g id="change2_9"><path d="M256.4,518.8c-1,0-2-0.3-2.9-0.8l-57.8-32c-1.9-1.1-3.1-3.1-3.1-5.3v-64.2c0-2.2,1.2-4.1,3-5.2c1.9-1.1,4.2-1.1,6,0 l57.8,34c1.8,1.1,3,3,3,5.2v62.2c0,2.1-1.1,4.1-3,5.2C258.5,518.6,257.5,518.8,256.4,518.8z M204.6,477.3l45.8,25.3V454 l-45.8-26.9V477.3z" fill="inherit"/></g></g></g><g><g id="change2_37"><path d="M366.9,246.8c-2.1,0-4.1-1.1-5.2-3c-1.7-2.9-0.7-6.5,2.1-8.2l55.3-32.5c2.9-1.7,6.5-0.7,8.2,2.1c1.7,2.9,0.7,6.5-2.1,8.2 L369.9,246C369,246.6,367.9,246.8,366.9,246.8z" fill="inherit"/></g><g id="change2_7"><path d="M397.5,156.7c-1,0-2.1-0.3-3-0.8L284.7,91.4c-2.9-1.7-3.8-5.4-2.1-8.2c1.7-2.9,5.4-3.8,8.2-2.1l109.7,64.5 c2.9,1.7,3.8,5.4,2.1,8.2C401.6,155.6,399.5,156.7,397.5,156.7z" fill="inherit"/></g><g id="change2_33"><path d="M115.3,156.7c-2.1,0-4.1-1.1-5.2-3c-1.7-2.9-0.7-6.5,2.1-8.2L218,83.4c2.9-1.7,6.5-0.7,8.2,2.1c1.7,2.9,0.7,6.5-2.1,8.2 l-105.8,62.1C117.4,156.4,116.4,156.7,115.3,156.7z" fill="inherit"/></g><g id="change2_27"><path d="M146.6,241c-1,0-2.1-0.3-3-0.8l-49.3-29c-2.9-1.7-3.8-5.4-2.1-8.2c1.7-2.9,5.4-3.8,8.2-2.1l49.3,29 c2.9,1.7,3.8,5.4,2.1,8.2C150.6,239.9,148.6,241,146.6,241z" fill="inherit"/></g><g id="change2_15"><path d="M314.2,445.8c-2.1,0-4.1-1.1-5.2-3c-1.7-2.9-0.7-6.5,2.1-8.2l109.1-64.1c2.9-1.7,6.5-0.7,8.2,2.1 c1.7,2.9,0.7,6.5-2.1,8.2L317.2,445C316.3,445.6,315.2,445.8,314.2,445.8z" fill="inherit"/></g><g id="change2_10"><path d="M410.4,319.5c-1,0-2.1-0.3-3-0.8l-41.6-24.5c-2.9-1.7-3.8-5.4-2.1-8.2c1.7-2.9,5.4-3.8,8.2-2.1l41.6,24.5 c2.9,1.7,3.8,5.4,2.1,8.2C414.5,318.4,412.5,319.5,410.4,319.5z" fill="inherit"/></g><g id="change2_1"><path d="M109.5,315.3c-2.1,0-4.1-1.1-5.2-3c-1.7-2.9-0.7-6.5,2.1-8.2l36.4-21.4c2.9-1.7,6.5-0.7,8.2,2.1c1.7,2.9,0.7,6.5-2.1,8.2 l-36.4,21.4C111.6,315,110.5,315.3,109.5,315.3z" fill="inherit"/></g><g id="change2_4"><path d="M198.6,433.6c-1,0-2.1-0.3-3-0.8L88,369.6c-2.9-1.7-3.8-5.4-2.1-8.2c1.7-2.9,5.4-3.8,8.2-2.1l107.5,63.2 c2.9,1.7,3.8,5.4,2.1,8.2C202.7,432.6,200.7,433.6,198.6,433.6z" fill="inherit"/></g></g></g></svg>