<?xml version="1.0" encoding="UTF-8" standalone="no"?><svg xmlns="http://www.w3.org/2000/svg" xmlns:xlink="http://www.w3.org/1999/xlink" fill="#ffffff" height="7.3" preserveAspectRatio="xMidYMid meet" version="1" viewBox="0.4 1.4 9.3 7.3" width="9.3" zoomAndPan="magnify"><g id="change1_1"><path d="M2.705,7.715c0.012,0.006,0.023,0.008,0.035,0.008c0.03,0,0.061-0.018,0.075-0.049c0.019-0.041,0-0.09-0.042-0.107 L2.097,7.264C1.895,7.156,2.036,6.779,2.04,6.768l0.373-1.294c0-0.002,0.042-0.192,0.135-0.466c0.156-0.462,0.776-0.783,0.97-0.875 l0.104,0.25c0.158,0.329,0.53,0.635,0.547,0.647c0.015,0.013,0.034,0.02,0.052,0.02c0.024,0,0.049-0.01,0.063-0.03 c0.03-0.036,0.024-0.088-0.011-0.118C4.27,4.9,3.914,4.606,3.774,4.314L3.525,3.724c-0.003-0.008-0.1-0.206,0.092-0.534L4.324,2.01 C4.326,2.006,4.617,1.521,5,1.521c0.381,0,0.673,0.485,0.677,0.491l0.706,1.176c0.192,0.33,0.095,0.527,0.092,0.536 C6.473,3.726,6.472,3.729,6.47,3.73L6.229,4.311C6.087,4.606,5.73,4.9,5.726,4.903c-0.034,0.028-0.04,0.08-0.012,0.116 c0.017,0.02,0.041,0.03,0.065,0.03c0.018,0,0.036-0.006,0.052-0.02C5.848,5.018,6.22,4.711,6.378,4.377l0.104-0.246 c0.193,0.091,0.812,0.413,0.969,0.875c0.093,0.274,0.135,0.464,0.137,0.472l0.374,1.294c0.002,0.006,0.145,0.383-0.053,0.488 L7.228,7.566C7.186,7.584,7.167,7.633,7.186,7.674c0.014,0.031,0.043,0.049,0.076,0.049c0.011,0,0.021-0.002,0.034-0.008 L7.981,7.41c0.33-0.178,0.143-0.674,0.138-0.688l-0.37-1.284C7.747,5.43,7.703,5.237,7.607,4.954 C7.427,4.421,6.753,4.075,6.546,3.979l0.076-0.183c0.02-0.04,0.131-0.303-0.098-0.692L5.818,1.927C5.804,1.903,5.477,1.356,5,1.356 c-0.477,0-0.805,0.547-0.818,0.571L3.476,3.106c-0.229,0.388-0.118,0.65-0.097,0.69l0.076,0.183 C3.248,4.075,2.573,4.421,2.392,4.954C2.295,5.237,2.253,5.43,2.253,5.432l-0.37,1.283c-0.009,0.021-0.195,0.518,0.14,0.697 L2.705,7.715z" fill="inherit"/><path d="M5.965,3.769C5.98,3.78,5.998,3.786,6.016,3.786c0.024,0,0.05-0.012,0.065-0.033c0.028-0.038,0.02-0.088-0.016-0.116 L5.248,3.02c-0.139-0.105-0.357-0.105-0.496,0L3.935,3.637C3.897,3.665,3.891,3.715,3.917,3.753 c0.028,0.035,0.08,0.043,0.116,0.016l0.16-0.119l0.336,0.98C4.57,4.749,4.701,4.843,4.828,4.843h0.345 c0.128,0,0.256-0.094,0.298-0.212l0.337-0.98L5.965,3.769z" fill="inherit"/><path d="M9.581,8.49L8.433,7.746C8.419,7.738,8.403,7.734,8.388,7.734H6.997l0.146-2.335c0-0.023-0.007-0.046-0.022-0.062 C7.105,5.32,7.083,5.312,7.061,5.312H2.939c-0.022,0-0.044,0.009-0.06,0.026C2.864,5.354,2.856,5.376,2.856,5.399l0.146,2.335 h-1.39c-0.016,0-0.031,0.004-0.045,0.012L0.42,8.49C0.382,8.518,0.37,8.568,0.396,8.605c0.016,0.025,0.042,0.039,0.07,0.039 c0.016,0,0.031-0.008,0.045-0.014l1.126-0.732h1.375l0.01,0.162c0.002,0.043,0.04,0.074,0.083,0.074h3.791 c0.044,0,0.08-0.031,0.083-0.074l0.009-0.162h1.376l1.126,0.732c0.015,0.006,0.029,0.014,0.046,0.014 c0.027,0,0.053-0.014,0.069-0.039C9.629,8.568,9.618,8.518,9.581,8.49z" fill="inherit"/></g></svg>