<?xml version="1.0" encoding="UTF-8"?><svg xmlns="http://www.w3.org/2000/svg" xmlns:xlink="http://www.w3.org/1999/xlink" height="360.1" preserveAspectRatio="xMidYMid" version="1.1" viewBox="0.4 0.0 255.1 360.1" width="255.1" zoomAndPan="magnify">
 <g>
  <path d="m255.55 70.766l-23.24 260.36-104.47 28.96-104.18-28.92-23.215-260.4 255.1-0.004h0.01z" fill="#E44D26"/>
  <path d="m128 337.95l84.42-23.4 19.86-222.49-104.28-0.003v245.89z" fill="#F16529"/>
  <path d="m82.82 155.93h45.18v-31.94h-80.083l0.764 8.57 7.85 88.01h71.469v-31.93h-42.261l-2.919-32.71z" fill="#EBEBEB"/>
  <path d="m90.018 236.54h-32.06l4.474 50.15 65.418 18.16 0.15-0.04v-33.23l-0.14 0.04-35.568-9.61-2.274-25.47z" fill="#EBEBEB"/>
  <path d="m24.181 0h16.23v16.035h14.846v-16.035h16.231v48.558h-16.23v-16.26h-14.847v16.26h-16.23v-48.558z"/>
  <path d="m92.831 16.103h-14.288v-16.103h44.817v16.103h-14.3v32.455h-16.228v-32.455h-0.001z"/>
  <path d="m130.47 0h16.92l10.41 17.062 10.4-17.062h16.93v48.558h-16.16v-24.068l-11.17 17.265h-0.28l-11.17-17.265v24.068h-15.88v-48.558z"/>
  <path d="m193.21 0h16.23v32.508h22.83v16.05h-39.06v-48.558z"/>
  <path d="m127.89 220.57h39.33l-3.71 41.42-35.62 9.62v33.22l65.47-18.14 0.48-5.4 7.51-84.08 0.78-8.57h-74.24v31.93z" fill="#fff"/>
  <path d="m127.89 155.85v0.08h77.14l0.64-7.18 1.46-16.19 0.76-8.57h-80v31.86z" fill="#fff"/>
 </g>
</svg>